<svg xmlns="http://www.w3.org/2000/svg" height="256" width="256"><path d="M114.343 78.855c-16.35 0-30.546 11.182-32.267 26.241-1.72 15.917 11.187 30.545 29.252 31.835 18.07 1.72 33.987-9.897 35.708-26.242 1.72-15.917-11.182-30.545-29.252-31.834zm-.432-19.79c1.721 0 3.873 0 5.594.431 30.114 2.579 52.052 26.673 49.042 53.772-1.29 9.466-5.162 18.07-11.187 25.383l36.57 39.149c4.73 4.73 3.868 12.476-1.72 16.344-5.594 4.304-13.77 3.442-18.501-1.29l-36.997-40.006c-8.604 3.441-18.07 5.162-28.394 4.3-30.114-2.58-52.052-26.669-49.042-53.773 3.01-25.383 27.104-44.31 54.635-44.31z"/></svg>